<svg width="359" height="223" viewBox="0 0 359 223" fill="none" xmlns="http://www.w3.org/2000/svg">
<g filter="url(#filter0_d)">
<rect x="5" y="5" width="348.787" height="213" rx="8" fill="#EEEEEE"/>
</g>
<path d="M5 29C5 27.3431 6.34315 26 8 26H351C352.657 26 354 27.3431 354 29V210C354 214.418 350.418 218 346 218H13C8.58172 218 5 214.418 5 210V29Z" fill="white"/>
<circle cx="16.5" cy="16.5" r="3.5" fill="#ED6C60"/>
<circle cx="27.5" cy="16.5" r="3.5" fill="#F6C250"/>
<circle cx="38.5" cy="16.5" r="3.5" fill="#64CA57"/>
<rect x="130" y="168" width="109" height="25" rx="2" fill="#6FCF97"/>
<path d="M168.214 183.437C168.214 182.999 168.059 182.662 167.749 182.425C167.444 182.188 166.89 181.949 166.088 181.707C165.286 181.465 164.648 181.197 164.174 180.9C163.267 180.331 162.813 179.588 162.813 178.672C162.813 177.87 163.139 177.209 163.791 176.689C164.447 176.17 165.297 175.91 166.341 175.91C167.034 175.91 167.651 176.038 168.193 176.293C168.736 176.548 169.162 176.913 169.472 177.387C169.782 177.856 169.937 178.378 169.937 178.952H168.214C168.214 178.433 168.05 178.027 167.722 177.735C167.398 177.439 166.933 177.291 166.327 177.291C165.762 177.291 165.322 177.412 165.008 177.653C164.698 177.895 164.543 178.232 164.543 178.665C164.543 179.03 164.712 179.335 165.049 179.581C165.386 179.823 165.942 180.06 166.717 180.292C167.492 180.52 168.114 180.782 168.583 181.078C169.052 181.37 169.396 181.707 169.615 182.09C169.834 182.468 169.943 182.912 169.943 183.423C169.943 184.252 169.624 184.913 168.986 185.405C168.353 185.893 167.492 186.137 166.402 186.137C165.682 186.137 165.019 186.005 164.413 185.74C163.812 185.471 163.342 185.102 163.005 184.633C162.672 184.163 162.506 183.617 162.506 182.992H164.235C164.235 183.557 164.422 183.995 164.796 184.305C165.17 184.615 165.705 184.77 166.402 184.77C167.004 184.77 167.455 184.649 167.756 184.407C168.061 184.161 168.214 183.838 168.214 183.437ZM175.781 185.275C175.294 185.85 174.601 186.137 173.703 186.137C172.901 186.137 172.293 185.902 171.878 185.433C171.468 184.963 171.263 184.284 171.263 183.396V178.604H172.924V183.375C172.924 184.314 173.313 184.783 174.093 184.783C174.899 184.783 175.444 184.494 175.727 183.915V178.604H177.388V186H175.822L175.781 185.275ZM185.57 182.377C185.57 183.525 185.313 184.439 184.798 185.118C184.287 185.797 183.583 186.137 182.686 186.137C181.82 186.137 181.145 185.825 180.662 185.2L180.58 186H179.076V175.5H180.737V179.314C181.216 178.749 181.861 178.467 182.672 178.467C183.574 178.467 184.283 178.802 184.798 179.472C185.313 180.142 185.57 181.078 185.57 182.281V182.377ZM183.909 182.233C183.909 181.431 183.768 180.83 183.485 180.429C183.203 180.028 182.793 179.827 182.255 179.827C181.535 179.827 181.029 180.142 180.737 180.771V183.819C181.034 184.462 181.544 184.783 182.269 184.783C182.788 184.783 183.189 184.59 183.472 184.202C183.754 183.815 183.9 183.229 183.909 182.445V182.233ZM188.53 178.604L188.578 179.376C189.098 178.77 189.809 178.467 190.711 178.467C191.7 178.467 192.377 178.845 192.741 179.602C193.279 178.845 194.035 178.467 195.011 178.467C195.826 178.467 196.433 178.692 196.829 179.144C197.23 179.595 197.435 180.26 197.444 181.14V186H195.783V181.188C195.783 180.718 195.681 180.374 195.476 180.155C195.271 179.937 194.931 179.827 194.457 179.827C194.079 179.827 193.769 179.93 193.527 180.135C193.29 180.335 193.124 180.6 193.028 180.928L193.035 186H191.374V181.133C191.351 180.262 190.907 179.827 190.041 179.827C189.376 179.827 188.904 180.098 188.626 180.641V186H186.965V178.604H188.53ZM200.917 186H199.256V178.604H200.917V186ZM199.153 176.683C199.153 176.427 199.233 176.215 199.393 176.047C199.557 175.878 199.789 175.794 200.09 175.794C200.391 175.794 200.623 175.878 200.787 176.047C200.951 176.215 201.033 176.427 201.033 176.683C201.033 176.933 200.951 177.143 200.787 177.312C200.623 177.476 200.391 177.558 200.09 177.558C199.789 177.558 199.557 177.476 199.393 177.312C199.233 177.143 199.153 176.933 199.153 176.683ZM204.813 176.806V178.604H206.119V179.834H204.813V183.963C204.813 184.245 204.868 184.451 204.978 184.578C205.091 184.701 205.292 184.763 205.579 184.763C205.771 184.763 205.964 184.74 206.16 184.694V185.979C205.782 186.084 205.417 186.137 205.066 186.137C203.79 186.137 203.152 185.433 203.152 184.024V179.834H201.936V178.604H203.152V176.806H204.813Z" fill="white"/>
<defs>
<filter id="filter0_d" x="0" y="0" width="358.787" height="223" filterUnits="userSpaceOnUse" color-interpolation-filters="sRGB">
<feFlood flood-opacity="0" result="BackgroundImageFix"/>
<feColorMatrix in="SourceAlpha" type="matrix" values="0 0 0 0 0 0 0 0 0 0 0 0 0 0 0 0 0 0 127 0"/>
<feOffset/>
<feGaussianBlur stdDeviation="2.5"/>
<feColorMatrix type="matrix" values="0 0 0 0 0 0 0 0 0 0 0 0 0 0 0 0 0 0 0.25 0"/>
<feBlend mode="normal" in2="BackgroundImageFix" result="effect1_dropShadow"/>
<feBlend mode="normal" in="SourceGraphic" in2="effect1_dropShadow" result="shape"/>
</filter>
</defs>
</svg>
