<svg width="359" height="223" viewBox="0 0 359 223" fill="none" xmlns="http://www.w3.org/2000/svg">
<g filter="url(#filter0_d)">
<rect x="5" y="5" width="348.787" height="213" rx="8" fill="#EEEEEE"/>
</g>
<path d="M5 29C5 27.3431 6.34315 26 8 26H351C352.657 26 354 27.3431 354 29V210C354 214.418 350.418 218 346 218H13C8.58172 218 5 214.418 5 210V29Z" fill="white"/>
<circle cx="16.5" cy="16.5" r="3.5" fill="#ED6C60"/>
<circle cx="27.5" cy="16.5" r="3.5" fill="#F6C250"/>
<circle cx="38.5" cy="16.5" r="3.5" fill="#64CA57"/>
<rect x="130" y="168" width="109" height="25" rx="2" fill="#6FCF97"/>
<path d="M168.214 183.437C168.214 182.999 168.059 182.662 167.749 182.425C167.444 182.188 166.89 181.949 166.088 181.707C165.286 181.465 164.648 181.197 164.174 180.9C163.267 180.331 162.813 179.588 162.813 178.672C162.813 177.87 163.139 177.209 163.791 176.689C164.447 176.17 165.297 175.91 166.341 175.91C167.034 175.91 167.651 176.038 168.193 176.293C168.736 176.548 169.162 176.913 169.472 177.387C169.782 177.856 169.937 178.378 169.937 178.952H168.214C168.214 178.433 168.05 178.027 167.722 177.735C167.398 177.439 166.933 177.291 166.327 177.291C165.762 177.291 165.322 177.412 165.008 177.653C164.698 177.895 164.543 178.232 164.543 178.665C164.543 179.03 164.712 179.335 165.049 179.581C165.386 179.823 165.942 180.06 166.717 180.292C167.492 180.52 168.114 180.782 168.583 181.078C169.052 181.37 169.396 181.707 169.615 182.09C169.834 182.468 169.943 182.912 169.943 183.423C169.943 184.252 169.624 184.913 168.986 185.405C168.353 185.893 167.492 186.137 166.402 186.137C165.682 186.137 165.019 186.005 164.413 185.74C163.812 185.471 163.342 185.102 163.005 184.633C162.672 184.163 162.506 183.617 162.506 182.992H164.235C164.235 183.557 164.422 183.995 164.796 184.305C165.17 184.615 165.705 184.77 166.402 184.77C167.004 184.77 167.455 184.649 167.756 184.407C168.061 184.161 168.214 183.838 168.214 183.437ZM175.781 185.275C175.294 185.85 174.601 186.137 173.703 186.137C172.901 186.137 172.293 185.902 171.878 185.433C171.468 184.963 171.263 184.284 171.263 183.396V178.604H172.924V183.375C172.924 184.314 173.313 184.783 174.093 184.783C174.899 184.783 175.444 184.494 175.727 183.915V178.604H177.388V186H175.822L175.781 185.275ZM185.57 182.377C185.57 183.525 185.313 184.439 184.798 185.118C184.287 185.797 183.583 186.137 182.686 186.137C181.82 186.137 181.145 185.825 180.662 185.2L180.58 186H179.076V175.5H180.737V179.314C181.216 178.749 181.861 178.467 182.672 178.467C183.574 178.467 184.283 178.802 184.798 179.472C185.313 180.142 185.57 181.078 185.57 182.281V182.377ZM183.909 182.233C183.909 181.431 183.768 180.83 183.485 180.429C183.203 180.028 182.793 179.827 182.255 179.827C181.535 179.827 181.029 180.142 180.737 180.771V183.819C181.034 184.462 181.544 184.783 182.269 184.783C182.788 184.783 183.189 184.59 183.472 184.202C183.754 183.815 183.9 183.229 183.909 182.445V182.233ZM188.53 178.604L188.578 179.376C189.098 178.77 189.809 178.467 190.711 178.467C191.7 178.467 192.377 178.845 192.741 179.602C193.279 178.845 194.035 178.467 195.011 178.467C195.826 178.467 196.433 178.692 196.829 179.144C197.23 179.595 197.435 180.26 197.444 181.14V186H195.783V181.188C195.783 180.718 195.681 180.374 195.476 180.155C195.271 179.937 194.931 179.827 194.457 179.827C194.079 179.827 193.769 179.93 193.527 180.135C193.29 180.335 193.124 180.6 193.028 180.928L193.035 186H191.374V181.133C191.351 180.262 190.907 179.827 190.041 179.827C189.376 179.827 188.904 180.098 188.626 180.641V186H186.965V178.604H188.53ZM200.917 186H199.256V178.604H200.917V186ZM199.153 176.683C199.153 176.427 199.233 176.215 199.393 176.047C199.557 175.878 199.789 175.794 200.09 175.794C200.391 175.794 200.623 175.878 200.787 176.047C200.951 176.215 201.033 176.427 201.033 176.683C201.033 176.933 200.951 177.143 200.787 177.312C200.623 177.476 200.391 177.558 200.09 177.558C199.789 177.558 199.557 177.476 199.393 177.312C199.233 177.143 199.153 176.933 199.153 176.683ZM204.813 176.806V178.604H206.119V179.834H204.813V183.963C204.813 184.245 204.868 184.451 204.978 184.578C205.091 184.701 205.292 184.763 205.579 184.763C205.771 184.763 205.964 184.74 206.16 184.694V185.979C205.782 186.084 205.417 186.137 205.066 186.137C203.79 186.137 203.152 185.433 203.152 184.024V179.834H201.936V178.604H203.152V176.806H204.813Z" fill="white"/>
<rect x="53" y="60" width="112" height="23" rx="2" fill="#EEEEEE"/>
<rect x="193" y="60" width="112" height="23" rx="2" fill="#EEEEEE"/>
<rect x="193" y="93" width="112" height="23" rx="2" fill="#EEEEEE"/>
<rect x="193" y="124" width="112" height="23" rx="2" fill="#EEEEEE"/>
<rect x="53" y="93" width="112" height="23" rx="2" fill="#EEEEEE"/>
<rect x="53" y="124" width="112" height="23" rx="2" fill="#EEEEEE"/>
<path d="M70.5645 67.4688H71.6953V73.5098C71.6953 74.3262 71.4492 74.9648 70.957 75.4258C70.4688 75.8867 69.8164 76.1172 69 76.1172C68.1523 76.1172 67.4922 75.9004 67.0195 75.4668C66.5469 75.0332 66.3105 74.4258 66.3105 73.6445H67.4355C67.4355 74.1328 67.5684 74.5137 67.834 74.7871C68.1035 75.0605 68.4922 75.1973 69 75.1973C69.4648 75.1973 69.8398 75.0508 70.125 74.7578C70.4141 74.4648 70.5605 74.0547 70.5645 73.5273V67.4688ZM73.1543 72.7715C73.1543 72.1504 73.2754 71.5918 73.5176 71.0957C73.7637 70.5996 74.1035 70.2168 74.5371 69.9473C74.9746 69.6777 75.4727 69.543 76.0312 69.543C76.8945 69.543 77.5918 69.8418 78.123 70.4395C78.6582 71.0371 78.9258 71.832 78.9258 72.8242V72.9004C78.9258 73.5176 78.8066 74.0723 78.5684 74.5645C78.334 75.0527 77.9961 75.4336 77.5547 75.707C77.1172 75.9805 76.6133 76.1172 76.043 76.1172C75.1836 76.1172 74.4863 75.8184 73.9512 75.2207C73.4199 74.623 73.1543 73.832 73.1543 72.8477V72.7715ZM74.2441 72.9004C74.2441 73.6035 74.4062 74.168 74.7305 74.5938C75.0586 75.0195 75.4961 75.2324 76.043 75.2324C76.5938 75.2324 77.0312 75.0176 77.3555 74.5879C77.6797 74.1543 77.8418 73.5488 77.8418 72.7715C77.8418 72.0762 77.6758 71.5137 77.3438 71.084C77.0156 70.6504 76.5781 70.4336 76.0312 70.4336C75.4961 70.4336 75.0645 70.6465 74.7363 71.0723C74.4082 71.498 74.2441 72.1074 74.2441 72.9004ZM81.3691 70.4277C81.8496 69.8379 82.4746 69.543 83.2441 69.543C84.584 69.543 85.2598 70.2988 85.2715 71.8105V76H84.1875V71.8047C84.1836 71.3477 84.0781 71.0098 83.8711 70.791C83.668 70.5723 83.3496 70.4629 82.916 70.4629C82.5645 70.4629 82.2559 70.5566 81.9902 70.7441C81.7246 70.9316 81.5176 71.1777 81.3691 71.4824V76H80.2852V67H81.3691V70.4277ZM87.9199 69.6602L87.9551 70.457C88.4395 69.8477 89.0723 69.543 89.8535 69.543C91.1934 69.543 91.8691 70.2988 91.8809 71.8105V76H90.7969V71.8047C90.793 71.3477 90.6875 71.0098 90.4805 70.791C90.2773 70.5723 89.959 70.4629 89.5254 70.4629C89.1738 70.4629 88.8652 70.5566 88.5996 70.7441C88.334 70.9316 88.127 71.1777 87.9785 71.4824V76H86.8945V69.6602H87.9199ZM96.6621 76V67.4688H99.0703C99.8125 67.4688 100.469 67.6328 101.039 67.9609C101.609 68.2891 102.049 68.7559 102.357 69.3613C102.67 69.9668 102.828 70.6621 102.832 71.4473V71.9922C102.832 72.7969 102.676 73.502 102.363 74.1074C102.055 74.7129 101.611 75.1777 101.033 75.502C100.459 75.8262 99.7891 75.9922 99.0234 76H96.6621ZM97.7871 68.3945V75.0801H98.9707C99.8379 75.0801 100.512 74.8105 100.992 74.2715C101.477 73.7324 101.719 72.9648 101.719 71.9688V71.4707C101.719 70.502 101.49 69.75 101.033 69.2148C100.58 68.6758 99.9355 68.4023 99.0996 68.3945H97.7871ZM104.08 72.7715C104.08 72.1504 104.201 71.5918 104.443 71.0957C104.689 70.5996 105.029 70.2168 105.463 69.9473C105.9 69.6777 106.398 69.543 106.957 69.543C107.82 69.543 108.518 69.8418 109.049 70.4395C109.584 71.0371 109.852 71.832 109.852 72.8242V72.9004C109.852 73.5176 109.732 74.0723 109.494 74.5645C109.26 75.0527 108.922 75.4336 108.48 75.707C108.043 75.9805 107.539 76.1172 106.969 76.1172C106.109 76.1172 105.412 75.8184 104.877 75.2207C104.346 74.623 104.08 73.832 104.08 72.8477V72.7715ZM105.17 72.9004C105.17 73.6035 105.332 74.168 105.656 74.5938C105.984 75.0195 106.422 75.2324 106.969 75.2324C107.52 75.2324 107.957 75.0176 108.281 74.5879C108.605 74.1543 108.768 73.5488 108.768 72.7715C108.768 72.0762 108.602 71.5137 108.27 71.084C107.941 70.6504 107.504 70.4336 106.957 70.4336C106.422 70.4336 105.99 70.6465 105.662 71.0723C105.334 71.498 105.17 72.1074 105.17 72.9004ZM113.842 76.1172C112.982 76.1172 112.283 75.8359 111.744 75.2734C111.205 74.707 110.936 73.9512 110.936 73.0059V72.8066C110.936 72.1777 111.055 71.6172 111.293 71.125C111.535 70.6289 111.871 70.2422 112.301 69.9648C112.734 69.6836 113.203 69.543 113.707 69.543C114.531 69.543 115.172 69.8145 115.629 70.3574C116.086 70.9004 116.314 71.6777 116.314 72.6895V73.1406H112.02C112.035 73.7656 112.217 74.2715 112.564 74.6582C112.916 75.041 113.361 75.2324 113.9 75.2324C114.283 75.2324 114.607 75.1543 114.873 74.998C115.139 74.8418 115.371 74.6348 115.57 74.377L116.232 74.8926C115.701 75.709 114.904 76.1172 113.842 76.1172ZM113.707 70.4336C113.27 70.4336 112.902 70.5938 112.605 70.9141C112.309 71.2305 112.125 71.6758 112.055 72.25H115.23V72.168C115.199 71.6172 115.051 71.1914 114.785 70.8906C114.52 70.5859 114.16 70.4336 113.707 70.4336Z" fill="#636363"/>
<path d="M210.863 72.25C210.637 72.5195 210.365 72.7363 210.049 72.9004C209.736 73.0645 209.393 73.1465 209.018 73.1465C208.525 73.1465 208.096 73.0254 207.729 72.7832C207.365 72.541 207.084 72.2012 206.885 71.7637C206.686 71.3223 206.586 70.8359 206.586 70.3047C206.586 69.7344 206.693 69.2207 206.908 68.7637C207.127 68.3066 207.436 67.957 207.834 67.7148C208.232 67.4727 208.697 67.3516 209.229 67.3516C210.072 67.3516 210.736 67.668 211.221 68.3008C211.709 68.9297 211.953 69.7891 211.953 70.8789V71.1953C211.953 72.8555 211.625 74.0684 210.969 74.834C210.312 75.5957 209.322 75.9863 207.998 76.0059H207.787V75.0918H208.016C208.91 75.0762 209.598 74.8438 210.078 74.3945C210.559 73.9414 210.82 73.2266 210.863 72.25ZM209.193 72.25C209.557 72.25 209.891 72.1387 210.195 71.916C210.504 71.6934 210.729 71.418 210.869 71.0898V70.6562C210.869 69.9453 210.715 69.3672 210.406 68.9219C210.098 68.4766 209.707 68.2539 209.234 68.2539C208.758 68.2539 208.375 68.4375 208.086 68.8047C207.797 69.168 207.652 69.6484 207.652 70.2461C207.652 70.8281 207.791 71.3086 208.068 71.6875C208.35 72.0625 208.725 72.25 209.193 72.25ZM217.01 76H215.92V68.7754L213.734 69.5781V68.5938L216.84 67.4277H217.01V76ZM225.535 72.3613C225.535 73.6309 225.318 74.5742 224.885 75.1914C224.451 75.8086 223.773 76.1172 222.852 76.1172C221.941 76.1172 221.268 75.8164 220.83 75.2148C220.393 74.6094 220.166 73.707 220.15 72.5078V71.0605C220.15 69.8066 220.367 68.875 220.801 68.2656C221.234 67.6562 221.914 67.3516 222.84 67.3516C223.758 67.3516 224.434 67.6465 224.867 68.2363C225.301 68.8223 225.523 69.7285 225.535 70.9551V72.3613ZM224.451 70.8789C224.451 69.9609 224.322 69.293 224.064 68.875C223.807 68.4531 223.398 68.2422 222.84 68.2422C222.285 68.2422 221.881 68.4512 221.627 68.8691C221.373 69.2871 221.242 69.9297 221.234 70.7969V72.5312C221.234 73.4531 221.367 74.1348 221.633 74.5762C221.902 75.0137 222.309 75.2324 222.852 75.2324C223.387 75.2324 223.783 75.0254 224.041 74.6113C224.303 74.1973 224.439 73.5449 224.451 72.6543V70.8789ZM234.055 72.25C233.828 72.5195 233.557 72.7363 233.24 72.9004C232.928 73.0645 232.584 73.1465 232.209 73.1465C231.717 73.1465 231.287 73.0254 230.92 72.7832C230.557 72.541 230.275 72.2012 230.076 71.7637C229.877 71.3223 229.777 70.8359 229.777 70.3047C229.777 69.7344 229.885 69.2207 230.1 68.7637C230.318 68.3066 230.627 67.957 231.025 67.7148C231.424 67.4727 231.889 67.3516 232.42 67.3516C233.264 67.3516 233.928 67.668 234.412 68.3008C234.9 68.9297 235.145 69.7891 235.145 70.8789V71.1953C235.145 72.8555 234.816 74.0684 234.16 74.834C233.504 75.5957 232.514 75.9863 231.189 76.0059H230.979V75.0918H231.207C232.102 75.0762 232.789 74.8438 233.27 74.3945C233.75 73.9414 234.012 73.2266 234.055 72.25ZM232.385 72.25C232.748 72.25 233.082 72.1387 233.387 71.916C233.695 71.6934 233.92 71.418 234.061 71.0898V70.6562C234.061 69.9453 233.906 69.3672 233.598 68.9219C233.289 68.4766 232.898 68.2539 232.426 68.2539C231.949 68.2539 231.566 68.4375 231.277 68.8047C230.988 69.168 230.844 69.6484 230.844 70.2461C230.844 70.8281 230.982 71.3086 231.26 71.6875C231.541 72.0625 231.916 72.25 232.385 72.25ZM242.229 76H236.639V75.2207L239.592 71.9395C240.029 71.4434 240.33 71.041 240.494 70.7324C240.662 70.4199 240.746 70.0977 240.746 69.7656C240.746 69.3203 240.611 68.9551 240.342 68.6699C240.072 68.3848 239.713 68.2422 239.264 68.2422C238.725 68.2422 238.305 68.3965 238.004 68.7051C237.707 69.0098 237.559 69.4355 237.559 69.9824H236.475C236.475 69.1973 236.727 68.5625 237.23 68.0781C237.738 67.5938 238.416 67.3516 239.264 67.3516C240.057 67.3516 240.684 67.5605 241.145 67.9785C241.605 68.3926 241.836 68.9453 241.836 69.6367C241.836 70.4766 241.301 71.4766 240.23 72.6367L237.945 75.1152H242.229V76ZM248.727 72.3613C248.727 73.6309 248.51 74.5742 248.076 75.1914C247.643 75.8086 246.965 76.1172 246.043 76.1172C245.133 76.1172 244.459 75.8164 244.021 75.2148C243.584 74.6094 243.357 73.707 243.342 72.5078V71.0605C243.342 69.8066 243.559 68.875 243.992 68.2656C244.426 67.6562 245.105 67.3516 246.031 67.3516C246.949 67.3516 247.625 67.6465 248.059 68.2363C248.492 68.8223 248.715 69.7285 248.727 70.9551V72.3613ZM247.643 70.8789C247.643 69.9609 247.514 69.293 247.256 68.875C246.998 68.4531 246.59 68.2422 246.031 68.2422C245.477 68.2422 245.072 68.4512 244.818 68.8691C244.564 69.2871 244.434 69.9297 244.426 70.7969V72.5312C244.426 73.4531 244.559 74.1348 244.824 74.5762C245.094 75.0137 245.5 75.2324 246.043 75.2324C246.578 75.2324 246.975 75.0254 247.232 74.6113C247.494 74.1973 247.631 73.5449 247.643 72.6543V70.8789ZM256.654 76H255.564V68.7754L253.379 69.5781V68.5938L256.484 67.4277H256.654V76ZM265.18 72.3613C265.18 73.6309 264.963 74.5742 264.529 75.1914C264.096 75.8086 263.418 76.1172 262.496 76.1172C261.586 76.1172 260.912 75.8164 260.475 75.2148C260.037 74.6094 259.811 73.707 259.795 72.5078V71.0605C259.795 69.8066 260.012 68.875 260.445 68.2656C260.879 67.6562 261.559 67.3516 262.484 67.3516C263.402 67.3516 264.078 67.6465 264.512 68.2363C264.945 68.8223 265.168 69.7285 265.18 70.9551V72.3613ZM264.096 70.8789C264.096 69.9609 263.967 69.293 263.709 68.875C263.451 68.4531 263.043 68.2422 262.484 68.2422C261.93 68.2422 261.525 68.4512 261.271 68.8691C261.018 69.2871 260.887 69.9297 260.879 70.7969V72.5312C260.879 73.4531 261.012 74.1348 261.277 74.5762C261.547 75.0137 261.953 75.2324 262.496 75.2324C263.031 75.2324 263.428 75.0254 263.686 74.6113C263.947 74.1973 264.084 73.5449 264.096 72.6543V70.8789ZM272.158 76H266.568V75.2207L269.521 71.9395C269.959 71.4434 270.26 71.041 270.424 70.7324C270.592 70.4199 270.676 70.0977 270.676 69.7656C270.676 69.3203 270.541 68.9551 270.271 68.6699C270.002 68.3848 269.643 68.2422 269.193 68.2422C268.654 68.2422 268.234 68.3965 267.934 68.7051C267.637 69.0098 267.488 69.4355 267.488 69.9824H266.404C266.404 69.1973 266.656 68.5625 267.16 68.0781C267.668 67.5938 268.346 67.3516 269.193 67.3516C269.986 67.3516 270.613 67.5605 271.074 67.9785C271.535 68.3926 271.766 68.9453 271.766 69.6367C271.766 70.4766 271.23 71.4766 270.16 72.6367L267.875 75.1152H272.158V76ZM277.461 72.25C277.234 72.5195 276.963 72.7363 276.646 72.9004C276.334 73.0645 275.99 73.1465 275.615 73.1465C275.123 73.1465 274.693 73.0254 274.326 72.7832C273.963 72.541 273.682 72.2012 273.482 71.7637C273.283 71.3223 273.184 70.8359 273.184 70.3047C273.184 69.7344 273.291 69.2207 273.506 68.7637C273.725 68.3066 274.033 67.957 274.432 67.7148C274.83 67.4727 275.295 67.3516 275.826 67.3516C276.67 67.3516 277.334 67.668 277.818 68.3008C278.307 68.9297 278.551 69.7891 278.551 70.8789V71.1953C278.551 72.8555 278.223 74.0684 277.566 74.834C276.91 75.5957 275.92 75.9863 274.596 76.0059H274.385V75.0918H274.613C275.508 75.0762 276.195 74.8438 276.676 74.3945C277.156 73.9414 277.418 73.2266 277.461 72.25ZM275.791 72.25C276.154 72.25 276.488 72.1387 276.793 71.916C277.102 71.6934 277.326 71.418 277.467 71.0898V70.6562C277.467 69.9453 277.312 69.3672 277.004 68.9219C276.695 68.4766 276.305 68.2539 275.832 68.2539C275.355 68.2539 274.973 68.4375 274.684 68.8047C274.395 69.168 274.25 69.6484 274.25 70.2461C274.25 70.8281 274.389 71.3086 274.666 71.6875C274.947 72.0625 275.322 72.25 275.791 72.25Z" fill="#636363"/>
<path d="M210.863 105.25C210.637 105.52 210.365 105.736 210.049 105.9C209.736 106.064 209.393 106.146 209.018 106.146C208.525 106.146 208.096 106.025 207.729 105.783C207.365 105.541 207.084 105.201 206.885 104.764C206.686 104.322 206.586 103.836 206.586 103.305C206.586 102.734 206.693 102.221 206.908 101.764C207.127 101.307 207.436 100.957 207.834 100.715C208.232 100.473 208.697 100.352 209.229 100.352C210.072 100.352 210.736 100.668 211.221 101.301C211.709 101.93 211.953 102.789 211.953 103.879V104.195C211.953 105.855 211.625 107.068 210.969 107.834C210.312 108.596 209.322 108.986 207.998 109.006H207.787V108.092H208.016C208.91 108.076 209.598 107.844 210.078 107.395C210.559 106.941 210.82 106.227 210.863 105.25ZM209.193 105.25C209.557 105.25 209.891 105.139 210.195 104.916C210.504 104.693 210.729 104.418 210.869 104.09V103.656C210.869 102.945 210.715 102.367 210.406 101.922C210.098 101.477 209.707 101.254 209.234 101.254C208.758 101.254 208.375 101.438 208.086 101.805C207.797 102.168 207.652 102.648 207.652 103.246C207.652 103.828 207.791 104.309 208.068 104.688C208.35 105.062 208.725 105.25 209.193 105.25ZM218.797 105.361C218.797 106.631 218.58 107.574 218.146 108.191C217.713 108.809 217.035 109.117 216.113 109.117C215.203 109.117 214.529 108.816 214.092 108.215C213.654 107.609 213.428 106.707 213.412 105.508V104.061C213.412 102.807 213.629 101.875 214.062 101.266C214.496 100.656 215.176 100.352 216.102 100.352C217.02 100.352 217.695 100.646 218.129 101.236C218.562 101.822 218.785 102.729 218.797 103.955V105.361ZM217.713 103.879C217.713 102.961 217.584 102.293 217.326 101.875C217.068 101.453 216.66 101.242 216.102 101.242C215.547 101.242 215.143 101.451 214.889 101.869C214.635 102.287 214.504 102.93 214.496 103.797V105.531C214.496 106.453 214.629 107.135 214.895 107.576C215.164 108.014 215.57 108.232 216.113 108.232C216.648 108.232 217.045 108.025 217.303 107.611C217.564 107.197 217.701 106.545 217.713 105.654V103.879ZM225.775 109H220.186V108.221L223.139 104.939C223.576 104.443 223.877 104.041 224.041 103.732C224.209 103.42 224.293 103.098 224.293 102.766C224.293 102.32 224.158 101.955 223.889 101.67C223.619 101.385 223.26 101.242 222.811 101.242C222.271 101.242 221.852 101.396 221.551 101.705C221.254 102.01 221.105 102.436 221.105 102.982H220.021C220.021 102.197 220.273 101.562 220.777 101.078C221.285 100.594 221.963 100.352 222.811 100.352C223.604 100.352 224.23 100.561 224.691 100.979C225.152 101.393 225.383 101.945 225.383 102.637C225.383 103.477 224.848 104.477 223.777 105.637L221.492 108.115H225.775V109ZM230.486 109H229.396V101.775L227.211 102.578V101.594L230.316 100.428H230.486V109ZM239.012 105.361C239.012 106.631 238.795 107.574 238.361 108.191C237.928 108.809 237.25 109.117 236.328 109.117C235.418 109.117 234.744 108.816 234.307 108.215C233.869 107.609 233.643 106.707 233.627 105.508V104.061C233.627 102.807 233.844 101.875 234.277 101.266C234.711 100.656 235.391 100.352 236.316 100.352C237.234 100.352 237.91 100.646 238.344 101.236C238.777 101.822 239 102.729 239.012 103.955V105.361ZM237.928 103.879C237.928 102.961 237.799 102.293 237.541 101.875C237.283 101.453 236.875 101.242 236.316 101.242C235.762 101.242 235.357 101.451 235.104 101.869C234.85 102.287 234.719 102.93 234.711 103.797V105.531C234.711 106.453 234.844 107.135 235.109 107.576C235.379 108.014 235.785 108.232 236.328 108.232C236.863 108.232 237.26 108.025 237.518 107.611C237.779 107.197 237.916 106.545 237.928 105.654V103.879Z" fill="#636363"/>
<path d="M206.99 140V131.469H209.779C210.705 131.469 211.4 131.66 211.865 132.043C212.334 132.426 212.568 132.992 212.568 133.742C212.568 134.141 212.455 134.494 212.229 134.803C212.002 135.107 211.693 135.344 211.303 135.512C211.764 135.641 212.127 135.887 212.393 136.25C212.662 136.609 212.797 137.039 212.797 137.539C212.797 138.305 212.549 138.906 212.053 139.344C211.557 139.781 210.855 140 209.949 140H206.99ZM208.115 136.01V139.08H209.973C210.496 139.08 210.908 138.945 211.209 138.676C211.514 138.402 211.666 138.027 211.666 137.551C211.666 136.523 211.107 136.01 209.99 136.01H208.115ZM208.115 135.107H209.814C210.307 135.107 210.699 134.984 210.992 134.738C211.289 134.492 211.438 134.158 211.438 133.736C211.438 133.268 211.301 132.928 211.027 132.717C210.754 132.502 210.338 132.395 209.779 132.395H208.115V135.107ZM216.928 140.117C216.068 140.117 215.369 139.836 214.83 139.273C214.291 138.707 214.021 137.951 214.021 137.006V136.807C214.021 136.178 214.141 135.617 214.379 135.125C214.621 134.629 214.957 134.242 215.387 133.965C215.82 133.684 216.289 133.543 216.793 133.543C217.617 133.543 218.258 133.814 218.715 134.357C219.172 134.9 219.4 135.678 219.4 136.689V137.141H215.105C215.121 137.766 215.303 138.271 215.65 138.658C216.002 139.041 216.447 139.232 216.986 139.232C217.369 139.232 217.693 139.154 217.959 138.998C218.225 138.842 218.457 138.635 218.656 138.377L219.318 138.893C218.787 139.709 217.99 140.117 216.928 140.117ZM216.793 134.434C216.355 134.434 215.988 134.594 215.691 134.914C215.395 135.23 215.211 135.676 215.141 136.25H218.316V136.168C218.285 135.617 218.137 135.191 217.871 134.891C217.605 134.586 217.246 134.434 216.793 134.434ZM222.67 138.529L224.24 133.66H225.348L223.074 140H222.248L219.951 133.66H221.059L222.67 138.529ZM228.939 140.117C228.08 140.117 227.381 139.836 226.842 139.273C226.303 138.707 226.033 137.951 226.033 137.006V136.807C226.033 136.178 226.152 135.617 226.391 135.125C226.633 134.629 226.969 134.242 227.398 133.965C227.832 133.684 228.301 133.543 228.805 133.543C229.629 133.543 230.27 133.814 230.727 134.357C231.184 134.9 231.412 135.678 231.412 136.689V137.141H227.117C227.133 137.766 227.314 138.271 227.662 138.658C228.014 139.041 228.459 139.232 228.998 139.232C229.381 139.232 229.705 139.154 229.971 138.998C230.236 138.842 230.469 138.635 230.668 138.377L231.33 138.893C230.799 139.709 230.002 140.117 228.939 140.117ZM228.805 134.434C228.367 134.434 228 134.594 227.703 134.914C227.406 135.23 227.223 135.676 227.152 136.25H230.328V136.168C230.297 135.617 230.148 135.191 229.883 134.891C229.617 134.586 229.258 134.434 228.805 134.434ZM235.736 134.633C235.572 134.605 235.395 134.592 235.203 134.592C234.492 134.592 234.01 134.895 233.756 135.5V140H232.672V133.66H233.727L233.744 134.393C234.1 133.826 234.604 133.543 235.256 133.543C235.467 133.543 235.627 133.57 235.736 133.625V134.633ZM237.916 140H236.832V131H237.916V140ZM241.73 138.412L243.207 133.66H244.367L241.818 140.979C241.424 142.033 240.797 142.561 239.938 142.561L239.732 142.543L239.328 142.467V141.588L239.621 141.611C239.988 141.611 240.273 141.537 240.477 141.389C240.684 141.24 240.854 140.969 240.986 140.574L241.227 139.93L238.965 133.66H240.148L241.73 138.412ZM255.043 140H253.912V136.057H249.611V140H248.486V131.469H249.611V135.137H253.912V131.469H255.043V140ZM258.049 140H256.965V133.66H258.049V140ZM256.877 131.979C256.877 131.803 256.93 131.654 257.035 131.533C257.145 131.412 257.305 131.352 257.516 131.352C257.727 131.352 257.887 131.412 257.996 131.533C258.105 131.654 258.16 131.803 258.16 131.979C258.16 132.154 258.105 132.301 257.996 132.418C257.887 132.535 257.727 132.594 257.516 132.594C257.305 132.594 257.145 132.535 257.035 132.418C256.93 132.301 256.877 132.154 256.877 131.979ZM260.967 140H259.883V131H260.967V140ZM263.885 140H262.801V131H263.885V140ZM269.316 138.318C269.316 138.025 269.205 137.799 268.982 137.639C268.764 137.475 268.379 137.334 267.828 137.217C267.281 137.1 266.846 136.959 266.521 136.795C266.201 136.631 265.963 136.436 265.807 136.209C265.654 135.982 265.578 135.713 265.578 135.4C265.578 134.881 265.797 134.441 266.234 134.082C266.676 133.723 267.238 133.543 267.922 133.543C268.641 133.543 269.223 133.729 269.668 134.1C270.117 134.471 270.342 134.945 270.342 135.523H269.252C269.252 135.227 269.125 134.971 268.871 134.756C268.621 134.541 268.305 134.434 267.922 134.434C267.527 134.434 267.219 134.52 266.996 134.691C266.773 134.863 266.662 135.088 266.662 135.365C266.662 135.627 266.766 135.824 266.973 135.957C267.18 136.09 267.553 136.217 268.092 136.338C268.635 136.459 269.074 136.604 269.41 136.771C269.746 136.939 269.994 137.143 270.154 137.381C270.318 137.615 270.4 137.902 270.4 138.242C270.4 138.809 270.174 139.264 269.721 139.607C269.268 139.947 268.68 140.117 267.957 140.117C267.449 140.117 267 140.027 266.609 139.848C266.219 139.668 265.912 139.418 265.689 139.098C265.471 138.773 265.361 138.424 265.361 138.049H266.445C266.465 138.412 266.609 138.701 266.879 138.916C267.152 139.127 267.512 139.232 267.957 139.232C268.367 139.232 268.695 139.15 268.941 138.986C269.191 138.818 269.316 138.596 269.316 138.318ZM271.777 141.699L271.162 141.277C271.529 140.766 271.721 140.238 271.736 139.695V138.717H272.797V139.566C272.797 139.961 272.699 140.355 272.504 140.75C272.312 141.145 272.07 141.461 271.777 141.699ZM283.59 137.293C283.484 138.195 283.15 138.893 282.588 139.385C282.029 139.873 281.285 140.117 280.355 140.117C279.348 140.117 278.539 139.756 277.93 139.033C277.324 138.311 277.021 137.344 277.021 136.133V135.312C277.021 134.52 277.162 133.822 277.443 133.221C277.729 132.619 278.131 132.158 278.65 131.838C279.17 131.514 279.771 131.352 280.455 131.352C281.361 131.352 282.088 131.605 282.635 132.113C283.182 132.617 283.5 133.316 283.59 134.211H282.459C282.361 133.531 282.148 133.039 281.82 132.734C281.496 132.43 281.041 132.277 280.455 132.277C279.736 132.277 279.172 132.543 278.762 133.074C278.355 133.605 278.152 134.361 278.152 135.342V136.168C278.152 137.094 278.346 137.83 278.732 138.377C279.119 138.924 279.66 139.197 280.355 139.197C280.98 139.197 281.459 139.057 281.791 138.775C282.127 138.49 282.35 137.996 282.459 137.293H283.59ZM289.842 137.773H286.268L285.465 140H284.305L287.562 131.469H288.547L291.811 140H290.656L289.842 137.773ZM286.607 136.848H289.508L288.055 132.857L286.607 136.848Z" fill="#636363"/>
<path d="M72.0586 137.361C72.0586 138.631 71.8418 139.574 71.4082 140.191C70.9746 140.809 70.2969 141.117 69.375 141.117C68.4648 141.117 67.791 140.816 67.3535 140.215C66.916 139.609 66.6895 138.707 66.6738 137.508V136.061C66.6738 134.807 66.8906 133.875 67.3242 133.266C67.7578 132.656 68.4375 132.352 69.3633 132.352C70.2812 132.352 70.957 132.646 71.3906 133.236C71.8242 133.822 72.0469 134.729 72.0586 135.955V137.361ZM70.9746 135.879C70.9746 134.961 70.8457 134.293 70.5879 133.875C70.3301 133.453 69.9219 133.242 69.3633 133.242C68.8086 133.242 68.4043 133.451 68.1504 133.869C67.8965 134.287 67.7656 134.93 67.7578 135.797V137.531C67.7578 138.453 67.8906 139.135 68.1562 139.576C68.4258 140.014 68.832 140.232 69.375 140.232C69.9102 140.232 70.3066 140.025 70.5645 139.611C70.8262 139.197 70.9629 138.545 70.9746 137.654V135.879ZM77.0098 141H75.9199V133.775L73.7344 134.578V133.594L76.8398 132.428H77.0098V141ZM80.5137 141.732H79.582L83.1445 132.469H84.0703L80.5137 141.732ZM90.4805 137.361C90.4805 138.631 90.2637 139.574 89.8301 140.191C89.3965 140.809 88.7188 141.117 87.7969 141.117C86.8867 141.117 86.2129 140.816 85.7754 140.215C85.3379 139.609 85.1113 138.707 85.0957 137.508V136.061C85.0957 134.807 85.3125 133.875 85.7461 133.266C86.1797 132.656 86.8594 132.352 87.7852 132.352C88.7031 132.352 89.3789 132.646 89.8125 133.236C90.2461 133.822 90.4688 134.729 90.4805 135.955V137.361ZM89.3965 135.879C89.3965 134.961 89.2676 134.293 89.0098 133.875C88.752 133.453 88.3438 133.242 87.7852 133.242C87.2305 133.242 86.8262 133.451 86.5723 133.869C86.3184 134.287 86.1875 134.93 86.1797 135.797V137.531C86.1797 138.453 86.3125 139.135 86.5781 139.576C86.8477 140.014 87.2539 140.232 87.7969 140.232C88.332 140.232 88.7285 140.025 88.9863 139.611C89.248 139.197 89.3848 138.545 89.3965 137.654V135.879ZM93.4453 136.207H94.2598C94.7715 136.199 95.1738 136.064 95.4668 135.803C95.7598 135.541 95.9062 135.188 95.9062 134.742C95.9062 133.742 95.4082 133.242 94.4121 133.242C93.9434 133.242 93.5684 133.377 93.2871 133.646C93.0098 133.912 92.8711 134.266 92.8711 134.707H91.7871C91.7871 134.031 92.0332 133.471 92.5254 133.025C93.0215 132.576 93.6504 132.352 94.4121 132.352C95.2168 132.352 95.8477 132.564 96.3047 132.99C96.7617 133.416 96.9902 134.008 96.9902 134.766C96.9902 135.137 96.8691 135.496 96.627 135.844C96.3887 136.191 96.0625 136.451 95.6484 136.623C96.1172 136.771 96.4785 137.018 96.7324 137.361C96.9902 137.705 97.1191 138.125 97.1191 138.621C97.1191 139.387 96.8691 139.994 96.3691 140.443C95.8691 140.893 95.2188 141.117 94.418 141.117C93.6172 141.117 92.9648 140.9 92.4609 140.467C91.9609 140.033 91.7109 139.461 91.7109 138.75H92.8008C92.8008 139.199 92.9473 139.559 93.2402 139.828C93.5332 140.098 93.9258 140.232 94.418 140.232C94.9414 140.232 95.3418 140.096 95.6191 139.822C95.8965 139.549 96.0352 139.156 96.0352 138.645C96.0352 138.148 95.8828 137.768 95.5781 137.502C95.2734 137.236 94.834 137.1 94.2598 137.092H93.4453V136.207ZM98.9355 141.732H98.0039L101.566 132.469H102.492L98.9355 141.732ZM107.115 141H106.025V133.775L103.84 134.578V133.594L106.945 132.428H107.115V141ZM114.445 137.25C114.219 137.52 113.947 137.736 113.631 137.9C113.318 138.064 112.975 138.146 112.6 138.146C112.107 138.146 111.678 138.025 111.311 137.783C110.947 137.541 110.666 137.201 110.467 136.764C110.268 136.322 110.168 135.836 110.168 135.305C110.168 134.734 110.275 134.221 110.49 133.764C110.709 133.307 111.018 132.957 111.416 132.715C111.814 132.473 112.279 132.352 112.811 132.352C113.654 132.352 114.318 132.668 114.803 133.301C115.291 133.93 115.535 134.789 115.535 135.879V136.195C115.535 137.855 115.207 139.068 114.551 139.834C113.895 140.596 112.904 140.986 111.58 141.006H111.369V140.092H111.598C112.492 140.076 113.18 139.844 113.66 139.395C114.141 138.941 114.402 138.227 114.445 137.25ZM112.775 137.25C113.139 137.25 113.473 137.139 113.777 136.916C114.086 136.693 114.311 136.418 114.451 136.09V135.656C114.451 134.945 114.297 134.367 113.988 133.922C113.68 133.477 113.289 133.254 112.816 133.254C112.34 133.254 111.957 133.438 111.668 133.805C111.379 134.168 111.234 134.648 111.234 135.246C111.234 135.828 111.373 136.309 111.65 136.688C111.932 137.062 112.307 137.25 112.775 137.25ZM122.203 134.695C122.203 135.121 122.09 135.5 121.863 135.832C121.641 136.164 121.338 136.424 120.955 136.611C121.4 136.803 121.752 137.082 122.01 137.449C122.271 137.816 122.402 138.232 122.402 138.697C122.402 139.436 122.152 140.023 121.652 140.461C121.156 140.898 120.502 141.117 119.689 141.117C118.869 141.117 118.211 140.898 117.715 140.461C117.223 140.02 116.977 139.432 116.977 138.697C116.977 138.236 117.102 137.82 117.352 137.449C117.605 137.078 117.955 136.797 118.4 136.605C118.021 136.418 117.723 136.158 117.504 135.826C117.285 135.494 117.176 135.117 117.176 134.695C117.176 133.977 117.406 133.406 117.867 132.984C118.328 132.562 118.936 132.352 119.689 132.352C120.439 132.352 121.045 132.562 121.506 132.984C121.971 133.406 122.203 133.977 122.203 134.695ZM121.318 138.674C121.318 138.197 121.166 137.809 120.861 137.508C120.561 137.207 120.166 137.057 119.678 137.057C119.189 137.057 118.797 137.205 118.5 137.502C118.207 137.799 118.061 138.189 118.061 138.674C118.061 139.158 118.203 139.539 118.488 139.816C118.777 140.094 119.178 140.232 119.689 140.232C120.197 140.232 120.596 140.094 120.885 139.816C121.174 139.535 121.318 139.154 121.318 138.674ZM119.689 133.242C119.264 133.242 118.918 133.375 118.652 133.641C118.391 133.902 118.26 134.26 118.26 134.713C118.26 135.146 118.389 135.498 118.646 135.768C118.908 136.033 119.256 136.166 119.689 136.166C120.123 136.166 120.469 136.033 120.727 135.768C120.988 135.498 121.119 135.146 121.119 134.713C121.119 134.279 120.984 133.926 120.715 133.652C120.445 133.379 120.104 133.242 119.689 133.242ZM129.357 141H123.768V140.221L126.721 136.939C127.158 136.443 127.459 136.041 127.623 135.732C127.791 135.42 127.875 135.098 127.875 134.766C127.875 134.32 127.74 133.955 127.471 133.67C127.201 133.385 126.842 133.242 126.393 133.242C125.854 133.242 125.434 133.396 125.133 133.705C124.836 134.01 124.688 134.436 124.688 134.982H123.604C123.604 134.197 123.855 133.562 124.359 133.078C124.867 132.594 125.545 132.352 126.393 132.352C127.186 132.352 127.812 132.561 128.273 132.979C128.734 133.393 128.965 133.945 128.965 134.637C128.965 135.477 128.43 136.477 127.359 137.637L125.074 140.115H129.357V141Z" fill="#636363"/>
<path d="M67.9395 102.66V109.732C67.9395 110.951 67.3867 111.561 66.2812 111.561C66.043 111.561 65.8223 111.525 65.6191 111.455V110.588C65.7441 110.619 65.9082 110.635 66.1113 110.635C66.3535 110.635 66.5371 110.568 66.6621 110.436C66.791 110.307 66.8555 110.08 66.8555 109.756V102.66H67.9395ZM66.7441 100.979C66.7441 100.807 66.7969 100.66 66.9023 100.539C67.0117 100.414 67.1699 100.352 67.377 100.352C67.5879 100.352 67.748 100.412 67.8574 100.533C67.9668 100.654 68.0215 100.803 68.0215 100.979C68.0215 101.154 67.9668 101.301 67.8574 101.418C67.748 101.535 67.5879 101.594 67.377 101.594C67.166 101.594 67.0078 101.535 66.9023 101.418C66.7969 101.301 66.7441 101.154 66.7441 100.979ZM69.4043 105.771C69.4043 105.15 69.5254 104.592 69.7676 104.096C70.0137 103.6 70.3535 103.217 70.7871 102.947C71.2246 102.678 71.7227 102.543 72.2812 102.543C73.1445 102.543 73.8418 102.842 74.373 103.439C74.9082 104.037 75.1758 104.832 75.1758 105.824V105.9C75.1758 106.518 75.0566 107.072 74.8184 107.564C74.584 108.053 74.2461 108.434 73.8047 108.707C73.3672 108.98 72.8633 109.117 72.293 109.117C71.4336 109.117 70.7363 108.818 70.2012 108.221C69.6699 107.623 69.4043 106.832 69.4043 105.848V105.771ZM70.4941 105.9C70.4941 106.604 70.6562 107.168 70.9805 107.594C71.3086 108.02 71.7461 108.232 72.293 108.232C72.8438 108.232 73.2812 108.018 73.6055 107.588C73.9297 107.154 74.0918 106.549 74.0918 105.771C74.0918 105.076 73.9258 104.514 73.5938 104.084C73.2656 103.65 72.8281 103.434 72.2812 103.434C71.7461 103.434 71.3145 103.646 70.9863 104.072C70.6582 104.498 70.4941 105.107 70.4941 105.9ZM77.6191 103.428C78.0996 102.838 78.7246 102.543 79.4941 102.543C80.834 102.543 81.5098 103.299 81.5215 104.811V109H80.4375V104.805C80.4336 104.348 80.3281 104.01 80.1211 103.791C79.918 103.572 79.5996 103.463 79.166 103.463C78.8145 103.463 78.5059 103.557 78.2402 103.744C77.9746 103.932 77.7676 104.178 77.6191 104.482V109H76.5352V100H77.6191V103.428ZM84.1699 102.66L84.2051 103.457C84.6895 102.848 85.3223 102.543 86.1035 102.543C87.4434 102.543 88.1191 103.299 88.1309 104.811V109H87.0469V104.805C87.043 104.348 86.9375 104.01 86.7305 103.791C86.5273 103.572 86.209 103.463 85.7754 103.463C85.4238 103.463 85.1152 103.557 84.8496 103.744C84.584 103.932 84.377 104.178 84.2285 104.482V109H83.1445V102.66H84.1699ZM99.1289 106.059C99.082 107.004 98.8477 107.75 98.4258 108.297C98.0039 108.844 97.4395 109.117 96.7324 109.117C96.002 109.117 95.5332 108.789 95.3262 108.133C95.1152 108.465 94.873 108.713 94.5996 108.877C94.3301 109.037 94.0508 109.117 93.7617 109.117C93.207 109.117 92.7871 108.891 92.502 108.438C92.2168 107.984 92.1113 107.357 92.1855 106.557C92.2441 105.912 92.3906 105.338 92.625 104.834C92.8633 104.326 93.168 103.928 93.5391 103.639C93.9141 103.35 94.3066 103.205 94.7168 103.205C95.0332 103.205 95.3164 103.248 95.5664 103.334C95.8164 103.416 96.0977 103.58 96.4102 103.826L96.1055 107.072C96.0312 107.975 96.2812 108.426 96.8555 108.426C97.2969 108.426 97.6543 108.207 97.9277 107.77C98.2012 107.332 98.3496 106.762 98.373 106.059C98.4473 104.539 98.1641 103.381 97.5234 102.584C96.8867 101.787 95.916 101.389 94.6113 101.389C93.8262 101.389 93.1289 101.584 92.5195 101.975C91.9102 102.361 91.4297 102.922 91.0781 103.656C90.7266 104.391 90.5293 105.238 90.4863 106.199C90.4395 107.168 90.5566 108.01 90.8379 108.725C91.1191 109.436 91.5469 109.979 92.1211 110.354C92.6992 110.732 93.3965 110.922 94.2129 110.922C94.5645 110.922 94.916 110.879 95.2676 110.793C95.623 110.707 95.918 110.596 96.1523 110.459L96.3691 111.133C96.127 111.285 95.8047 111.41 95.4023 111.508C95.0039 111.605 94.5996 111.654 94.1895 111.654C93.2129 111.654 92.373 111.434 91.6699 110.992C90.9668 110.555 90.4395 109.922 90.0879 109.094C89.7402 108.27 89.5898 107.305 89.6367 106.199C89.6836 105.125 89.9238 104.16 90.3574 103.305C90.791 102.445 91.3789 101.783 92.1211 101.318C92.8633 100.85 93.7012 100.615 94.6348 100.615C95.6074 100.615 96.4414 100.834 97.1367 101.271C97.832 101.709 98.3496 102.34 98.6895 103.164C99.0293 103.988 99.1758 104.953 99.1289 106.059ZM93.1172 106.557C93.0625 107.111 93.1133 107.537 93.2695 107.834C93.4297 108.131 93.6816 108.279 94.0254 108.279C94.2598 108.279 94.4844 108.18 94.6992 107.98C94.918 107.781 95.0977 107.496 95.2383 107.125L95.2441 107.072L95.5137 104.125C95.2949 104.012 95.0605 103.955 94.8105 103.955C94.3535 103.955 93.9746 104.188 93.6738 104.652C93.377 105.117 93.1914 105.752 93.1172 106.557ZM100.283 105.777C100.283 104.805 100.514 104.023 100.975 103.434C101.436 102.84 102.039 102.543 102.785 102.543C103.527 102.543 104.115 102.797 104.549 103.305V100H105.633V109H104.637L104.584 108.32C104.15 108.852 103.547 109.117 102.773 109.117C102.039 109.117 101.439 108.816 100.975 108.215C100.514 107.613 100.283 106.828 100.283 105.859V105.777ZM101.367 105.9C101.367 106.619 101.516 107.182 101.812 107.588C102.109 107.994 102.52 108.197 103.043 108.197C103.73 108.197 104.232 107.889 104.549 107.271V104.359C104.225 103.762 103.727 103.463 103.055 103.463C102.523 103.463 102.109 103.668 101.812 104.078C101.516 104.488 101.367 105.096 101.367 105.9ZM107.033 105.771C107.033 105.15 107.154 104.592 107.396 104.096C107.643 103.6 107.982 103.217 108.416 102.947C108.854 102.678 109.352 102.543 109.91 102.543C110.773 102.543 111.471 102.842 112.002 103.439C112.537 104.037 112.805 104.832 112.805 105.824V105.9C112.805 106.518 112.686 107.072 112.447 107.564C112.213 108.053 111.875 108.434 111.434 108.707C110.996 108.98 110.492 109.117 109.922 109.117C109.062 109.117 108.365 108.818 107.83 108.221C107.299 107.623 107.033 106.832 107.033 105.848V105.771ZM108.123 105.9C108.123 106.604 108.285 107.168 108.609 107.594C108.938 108.02 109.375 108.232 109.922 108.232C110.473 108.232 110.91 108.018 111.234 107.588C111.559 107.154 111.721 106.549 111.721 105.771C111.721 105.076 111.555 104.514 111.223 104.084C110.895 103.65 110.457 103.434 109.91 103.434C109.375 103.434 108.943 103.646 108.615 104.072C108.287 104.498 108.123 105.107 108.123 105.9ZM116.795 109.117C115.936 109.117 115.236 108.836 114.697 108.273C114.158 107.707 113.889 106.951 113.889 106.006V105.807C113.889 105.178 114.008 104.617 114.246 104.125C114.488 103.629 114.824 103.242 115.254 102.965C115.688 102.684 116.156 102.543 116.66 102.543C117.484 102.543 118.125 102.814 118.582 103.357C119.039 103.9 119.268 104.678 119.268 105.689V106.141H114.973C114.988 106.766 115.17 107.271 115.518 107.658C115.869 108.041 116.314 108.232 116.854 108.232C117.236 108.232 117.561 108.154 117.826 107.998C118.092 107.842 118.324 107.635 118.523 107.377L119.186 107.893C118.654 108.709 117.857 109.117 116.795 109.117ZM116.66 103.434C116.223 103.434 115.855 103.594 115.559 103.914C115.262 104.23 115.078 104.676 115.008 105.25H118.184V105.168C118.152 104.617 118.004 104.191 117.738 103.891C117.473 103.586 117.113 103.434 116.66 103.434ZM120.551 108.432C120.551 108.244 120.605 108.088 120.715 107.963C120.828 107.838 120.996 107.775 121.219 107.775C121.441 107.775 121.609 107.838 121.723 107.963C121.84 108.088 121.898 108.244 121.898 108.432C121.898 108.611 121.84 108.762 121.723 108.883C121.609 109.004 121.441 109.064 121.219 109.064C120.996 109.064 120.828 109.004 120.715 108.883C120.605 108.762 120.551 108.611 120.551 108.432ZM126.234 108.232C126.621 108.232 126.959 108.115 127.248 107.881C127.537 107.646 127.697 107.354 127.729 107.002H128.754C128.734 107.365 128.609 107.711 128.379 108.039C128.148 108.367 127.84 108.629 127.453 108.824C127.07 109.02 126.664 109.117 126.234 109.117C125.371 109.117 124.684 108.83 124.172 108.256C123.664 107.678 123.41 106.889 123.41 105.889V105.707C123.41 105.09 123.523 104.541 123.75 104.061C123.977 103.58 124.301 103.207 124.723 102.941C125.148 102.676 125.65 102.543 126.229 102.543C126.939 102.543 127.529 102.756 127.998 103.182C128.471 103.607 128.723 104.16 128.754 104.84H127.729C127.697 104.43 127.541 104.094 127.26 103.832C126.982 103.566 126.639 103.434 126.229 103.434C125.678 103.434 125.25 103.633 124.945 104.031C124.645 104.426 124.494 104.998 124.494 105.748V105.953C124.494 106.684 124.645 107.246 124.945 107.641C125.246 108.035 125.676 108.232 126.234 108.232ZM129.686 105.771C129.686 105.15 129.807 104.592 130.049 104.096C130.295 103.6 130.635 103.217 131.068 102.947C131.506 102.678 132.004 102.543 132.562 102.543C133.426 102.543 134.123 102.842 134.654 103.439C135.189 104.037 135.457 104.832 135.457 105.824V105.9C135.457 106.518 135.338 107.072 135.1 107.564C134.865 108.053 134.527 108.434 134.086 108.707C133.648 108.98 133.145 109.117 132.574 109.117C131.715 109.117 131.018 108.818 130.482 108.221C129.951 107.623 129.686 106.832 129.686 105.848V105.771ZM130.775 105.9C130.775 106.604 130.938 107.168 131.262 107.594C131.59 108.02 132.027 108.232 132.574 108.232C133.125 108.232 133.562 108.018 133.887 107.588C134.211 107.154 134.373 106.549 134.373 105.771C134.373 105.076 134.207 104.514 133.875 104.084C133.547 103.65 133.109 103.434 132.562 103.434C132.027 103.434 131.596 103.646 131.268 104.072C130.939 104.498 130.775 105.107 130.775 105.9ZM137.836 102.66L137.865 103.363C138.33 102.816 138.957 102.543 139.746 102.543C140.633 102.543 141.236 102.883 141.557 103.562C141.768 103.258 142.041 103.012 142.377 102.824C142.717 102.637 143.117 102.543 143.578 102.543C144.969 102.543 145.676 103.279 145.699 104.752V109H144.615V104.816C144.615 104.363 144.512 104.025 144.305 103.803C144.098 103.576 143.75 103.463 143.262 103.463C142.859 103.463 142.525 103.584 142.26 103.826C141.994 104.064 141.84 104.387 141.797 104.793V109H140.707V104.846C140.707 103.924 140.256 103.463 139.354 103.463C138.643 103.463 138.156 103.766 137.895 104.371V109H136.811V102.66H137.836Z" fill="#636363"/>
<defs>
<filter id="filter0_d" x="0" y="0" width="358.787" height="223" filterUnits="userSpaceOnUse" color-interpolation-filters="sRGB">
<feFlood flood-opacity="0" result="BackgroundImageFix"/>
<feColorMatrix in="SourceAlpha" type="matrix" values="0 0 0 0 0 0 0 0 0 0 0 0 0 0 0 0 0 0 127 0"/>
<feOffset/>
<feGaussianBlur stdDeviation="2.5"/>
<feColorMatrix type="matrix" values="0 0 0 0 0 0 0 0 0 0 0 0 0 0 0 0 0 0 0.25 0"/>
<feBlend mode="normal" in2="BackgroundImageFix" result="effect1_dropShadow"/>
<feBlend mode="normal" in="SourceGraphic" in2="effect1_dropShadow" result="shape"/>
</filter>
</defs>
</svg>
